<svg width="20" height="20" viewBox="0 0 20 20" fill="none" xmlns="http://www.w3.org/2000/svg">
<g clip-path="url(#clip0_224_427)">
<path d="M8.60583 10.8367L9.415 10.8333L9.3625 11.3008C9.055 13.8358 8.42417 15.9933 7.88167 17.5H6.99C7.41917 16.3467 7.93 14.7317 8.28333 12.8358C7.9675 13.1717 7.55833 13.5458 7.03333 13.9325L6.53833 13.2617C8.11083 12.1 8.49917 11.1142 8.5025 11.1042L8.605 10.8358L8.60583 10.8367ZM14.9917 8.09917C14.9917 14.4117 12.3775 19.7917 12.2708 20H0V19.2083C0.4425 18.3925 2.9175 12.6592 2.98417 8.13167L3.24583 7.91C3.91833 7.3525 4.89167 7.35333 5.5625 7.91C6.22 8.45583 7.17667 8.45583 7.83417 7.91C8.50583 7.35417 9.47917 7.35333 10.1508 7.91C10.8083 8.45583 11.765 8.45583 12.4225 7.91C13.0942 7.35417 14.0675 7.35333 14.7392 7.91L14.9925 8.1L14.9917 8.09917ZM14.1667 8.51917C13.8067 8.25083 13.3042 8.26 12.9542 8.55083C11.9942 9.3475 10.5783 9.3475 9.61833 8.55083C9.255 8.24917 8.72917 8.25 8.36667 8.55083C7.40667 9.3475 5.99083 9.3475 5.03083 8.55083C4.67833 8.25833 4.17083 8.25167 3.81083 8.525C3.69083 12.75 1.6675 17.6708 0.956667 19.1667H11.755C12.2333 18.1425 14.1208 13.7733 14.1667 8.52V8.51917ZM20.0008 2.0825V18.3325H14.9883C15.0733 18.0767 15.1633 17.7967 15.2542 17.4992H19.1675V5.83333C18.7717 5.83333 18.3958 5.69083 18.0808 5.42C17.7642 5.14917 17.3608 5 16.9458 5C16.5308 5 16.1267 5.14917 15.8108 5.42C15.18 5.96 14.2667 5.96 13.6375 5.42C13.0058 4.8775 12.0008 4.8775 11.3667 5.42C10.7358 5.96 9.8225 5.96 9.19333 5.42C8.56167 4.8775 7.55583 4.8775 6.9225 5.42C6.6075 5.69 6.23167 5.83333 5.83583 5.83333H5.0025V2.08333C5.0025 0.935 5.9375 0 7.08583 0H17.9192C19.0675 0 20.0025 0.935 20.0025 2.08333L20.0008 2.0825ZM19.1675 2.0825C19.1675 1.39333 18.6067 0.8325 17.9175 0.8325H7.08417C6.395 0.8325 5.83417 1.39333 5.83417 2.0825V4.99917C6.02833 4.99917 6.21583 4.92583 6.37917 4.78667C7.31333 3.98583 8.8 3.98583 9.73417 4.78667C10.06 5.065 10.5008 5.06417 10.8233 4.78667C11.7583 3.98583 13.2442 3.98667 14.1783 4.78667C14.5017 5.06417 14.9425 5.065 15.2683 4.78667C16.2025 3.98583 17.6892 3.98583 18.6233 4.78667C18.7858 4.92583 18.9742 4.99917 19.1683 4.99917V2.0825H19.1675Z" fill="#626262"/>
</g>
<defs>
<clipPath id="clip0_224_427">
<rect width="20" height="20" fill="white"/>
</clipPath>
</defs>
</svg>
