<svg width="20" height="20" viewBox="0 0 20 20" fill="none" xmlns="http://www.w3.org/2000/svg">
<g clip-path="url(#clip0_224_425)">
<path d="M14.9998 9.58333C14.9998 9.81333 14.8132 10 14.5832 10H5.4165C5.1865 10 4.99984 9.81333 4.99984 9.58333C4.99984 9.35333 5.1865 9.16667 5.4165 9.16667H14.5832C14.8132 9.16667 14.9998 9.35333 14.9998 9.58333ZM14.5832 12.5H5.4165C5.1865 12.5 4.99984 12.6867 4.99984 12.9167C4.99984 13.1467 5.1865 13.3333 5.4165 13.3333H14.5832C14.8132 13.3333 14.9998 13.1467 14.9998 12.9167C14.9998 12.6867 14.8132 12.5 14.5832 12.5ZM14.2373 15.1842C14.2082 15.2275 13.494 16.25 12.0832 16.25C11.2515 16.25 10.7665 15.9833 10.204 15.675C9.624 15.3558 9.0065 15.0008 7.914 15C6.1465 15.0092 5.124 16.3608 5.08234 16.4183C4.94567 16.6025 4.984 16.8625 5.16817 17C5.3515 17.1375 5.61234 17.1008 5.75067 16.9158C5.759 16.905 6.5765 15.84 7.91984 15.8333C8.7415 15.8075 9.2415 16.0958 9.804 16.4058C10.3832 16.7233 11.0382 17.0833 12.084 17.0833C13.9523 17.0833 14.8915 15.7067 14.9307 15.6475C15.0573 15.4567 15.0065 15.2 14.8157 15.0717C14.6273 14.9442 14.369 14.9925 14.2382 15.1833L14.2373 15.1842ZM18.3332 8.32167V16.2508C18.3332 18.3183 16.6507 20.0008 14.5832 20.0008H5.4165C3.349 20.0008 1.6665 18.3183 1.6665 16.2508V3.75C1.6665 1.6825 3.349 0 5.4165 0H10.0123C11.4582 0 12.819 0.563333 13.8432 1.58667L16.7465 4.49083C17.7698 5.51333 18.3332 6.87333 18.3332 8.32083V8.32167ZM13.2532 2.17583C12.794 1.7175 12.2532 1.37667 11.6665 1.15V5.41667C11.6665 6.10583 12.2273 6.66667 12.9165 6.66667H17.184C16.9565 6.08 16.6157 5.53833 16.1573 5.08L13.2532 2.17583ZM17.4998 8.32167C17.4998 8.0425 17.4682 7.76917 17.4198 7.50083H12.9165C11.7673 7.50083 10.8332 6.56583 10.8332 5.4175V0.913333C10.564 0.865 10.2907 0.833333 10.0123 0.833333H5.4165C3.80817 0.833333 2.49984 2.14167 2.49984 3.75V16.25C2.49984 17.8583 3.80817 19.1667 5.4165 19.1667H14.5832C16.1915 19.1667 17.4998 17.8583 17.4998 16.25V8.32083V8.32167Z" fill="#626262"/>
</g>
<defs>
<clipPath id="clip0_224_425">
<rect width="20" height="20" fill="white"/>
</clipPath>
</defs>
</svg>
