<svg width="23" height="23" viewBox="0 0 23 23" fill="none" xmlns="http://www.w3.org/2000/svg">
<path d="M4.16667 0.925H9.27315C9.58241 0.925 9.88704 0.952778 10.1852 1.00648V6.01759C10.1852 7.29352 11.2241 8.33241 12.5 8.33241H17.5102C17.5407 8.49722 17.563 8.66482 17.5759 8.83333C17.5963 9.08796 17.8296 9.27685 18.075 9.25741C18.3296 9.23704 18.5194 9.01296 18.4991 8.75833C18.3833 7.33611 17.7648 5.99815 16.7556 4.98982L13.5287 1.76296C12.3917 0.625926 10.8806 3.43806e-07 9.27315 3.43806e-07H4.16667C1.86944 -0.000925582 0 1.86852 0 4.16574V18.0546C0 20.3519 1.86944 22.2213 4.16667 22.2213H7.87037C8.12593 22.2213 8.33333 22.0139 8.33333 21.7583C8.33333 21.5028 8.12593 21.2954 7.87037 21.2954H4.16667C2.37963 21.2954 0.925926 19.8417 0.925926 18.0546V4.16574C0.925926 2.3787 2.37963 0.925 4.16667 0.925ZM16.1009 5.64352C16.6056 6.14815 16.9944 6.75 17.2491 7.40648H12.5C11.7343 7.40648 11.1111 6.78333 11.1111 6.01759V1.26574C11.7648 1.51852 12.3639 1.90648 12.8741 2.41667L16.1009 5.64352ZM21.5435 10.862C20.6704 9.98796 19.1435 9.98796 18.2704 10.862L11.1343 17.9981C10.5222 18.6102 10.1852 19.4241 10.1852 20.2898V21.7583C10.1852 22.0139 10.3926 22.2213 10.6481 22.2213H12.1167C12.9824 22.2213 13.7963 21.8843 14.4083 21.2722L21.5444 14.1361C21.9815 13.6991 22.2222 13.1176 22.2222 12.4991C22.2222 11.8806 21.9806 11.2991 21.5435 10.862ZM20.8889 13.4806L13.7528 20.6167C13.3157 21.0537 12.7343 21.2944 12.1157 21.2944H11.1102V20.2889C11.1102 19.6704 11.3509 19.0898 11.788 18.6519L18.9241 11.5157C19.4481 10.9917 20.3639 10.9917 20.888 11.5157C21.15 11.7778 21.2944 12.1269 21.2944 12.4981C21.2944 12.8694 21.1509 13.2176 20.8889 13.4806Z" fill="white"/>
</svg>
