<svg width="25" height="25" viewBox="0 0 25 25" fill="none" xmlns="http://www.w3.org/2000/svg">
<g clip-path="url(#clip0_375_50)">
<g clip-path="url(#clip1_375_50)">
<path d="M15.25 15.1668C15.25 13.375 13.7918 11.9168 12 11.9168H2.25C0.458167 11.9168 -1 13.375 -1 15.1668C-1 16.5795 -0.0943334 17.783 1.16667 18.2305V21.6668H-0.458333C-0.757333 21.6668 -1 21.9095 -1 22.2085C-1 22.5075 -0.757333 22.7501 -0.458333 22.7501H1.16667V25.4585C1.16667 25.7575 1.40933 26.0001 1.70833 26.0001C2.00733 26.0001 2.25 25.7575 2.25 25.4585V22.7501H12V25.4585C12 25.7575 12.2427 26.0001 12.5417 26.0001C12.8407 26.0001 13.0833 25.7575 13.0833 25.4585V22.7501H14.7083C15.0073 22.7501 15.25 22.5075 15.25 22.2085C15.25 21.9095 15.0073 21.6668 14.7083 21.6668H13.0833V18.2305C14.3443 17.783 15.25 16.5795 15.25 15.1668ZM12 21.6668H2.25V18.4168H12V21.6668ZM12 17.3335H2.25C1.05508 17.3335 0.0833334 16.3617 0.0833334 15.1668C0.0833334 13.9719 1.05508 13.0001 2.25 13.0001H12C13.1949 13.0001 14.1667 13.9719 14.1667 15.1668C14.1667 16.3617 13.1949 17.3335 12 17.3335ZM24.8581 14.1138C24.4551 15.6965 23.1508 16.9261 21.5355 17.2468C20.9343 17.366 20.3839 17.3757 19.826 17.3757C19.0298 17.3757 18.5 17.5945 18.5 18.666V25.4585C18.5 25.7575 18.2573 26.0001 17.9583 26.0001C17.6593 26.0001 17.4167 25.7575 17.4167 25.4585V18.666C17.4167 17.7798 17.7298 16.2924 19.826 16.2924C20.3276 16.2924 20.8194 16.2837 21.3243 16.184C22.5138 15.9479 23.5126 15.0086 23.8083 13.8473C24.0131 13.0435 23.9264 12.2407 23.5592 11.5246C23.336 11.0935 23.3382 10.5724 23.5624 10.1325C23.7975 9.6732 23.9167 9.18029 23.9167 8.6657C23.9167 7.6127 23.4411 6.65287 22.6448 6.09712C22.0999 5.71579 21.7619 5.08095 21.7164 4.35512C21.6449 3.22304 21.009 2.22637 19.9701 1.62295C18.8109 0.944786 17.3722 0.905786 16.1253 1.51245C15.0626 2.0292 14.3389 3.16454 14.1894 4.5512C14.1223 5.17195 13.7886 5.73637 13.2718 6.09712C12.4756 6.65395 12 7.61379 12 8.66679C12 8.82495 12.0108 8.97879 12.0336 9.13045C12.0769 9.42512 11.8722 9.70137 11.5764 9.7447C11.2763 9.77937 11.0055 9.58329 10.9622 9.28645C10.9329 9.08387 10.9167 8.87695 10.9167 8.66679C10.9167 7.26062 11.5656 5.9682 12.6522 5.20987C12.9111 5.02895 13.0801 4.7462 13.1126 4.43529C13.3011 2.67595 14.2501 1.21887 15.6508 0.538536C17.2249 -0.227381 19.0428 -0.172131 20.5161 0.686952C21.8713 1.4767 22.7033 2.78862 22.7976 4.28795C22.8225 4.68337 22.9937 5.0192 23.2656 5.20987C24.3511 5.9682 25 7.2617 25 8.66679C25 9.35362 24.8407 10.0123 24.5277 10.6265C24.4616 10.7544 24.4605 10.9093 24.5223 11.0306C25.0141 11.984 25.13 13.05 24.8592 14.1149L24.8581 14.1138Z" fill="black"/>
</g>
</g>
<defs>
<clipPath id="clip0_375_50">
<rect width="26" height="26" fill="white" transform="translate(-1)"/>
</clipPath>
<clipPath id="clip1_375_50">
<rect width="26" height="26" fill="white" transform="translate(-1)"/>
</clipPath>
</defs>
</svg>
