<svg width="20" height="24" viewBox="0 0 20 24" fill="none" xmlns="http://www.w3.org/2000/svg">
<path d="M9.69545 12C13.2601 12 16.1591 9.309 16.1591 6C16.1591 2.691 13.2601 0 9.69545 0C6.13076 0 3.23182 2.691 3.23182 6C3.23182 9.309 6.13076 12 9.69545 12ZM9.69545 1C12.6655 1 15.0818 3.243 15.0818 6C15.0818 8.757 12.6655 11 9.69545 11C6.72541 11 4.30909 8.757 4.30909 6C4.30909 3.243 6.72541 1 9.69545 1ZM19.3909 19V24H18.3136V19C18.3136 16.794 16.381 15 14.0045 15H5.38636C3.0099 15 1.07727 16.794 1.07727 19V24H0V19C0 16.243 2.41632 14 5.38636 14H14.0045C16.9746 14 19.3909 16.243 19.3909 19Z" fill="black"/>
</svg>
