<svg width="28" height="24" viewBox="0 0 28 24" fill="none" xmlns="http://www.w3.org/2000/svg">
<path d="M9.33636 15.7083V20.0417C9.33636 20.3407 9.07495 20.5833 8.75284 20.5833C8.43074 20.5833 8.16932 20.3407 8.16932 20.0417V15.7083C8.16932 15.4093 8.43074 15.1667 8.75284 15.1667C9.07495 15.1667 9.33636 15.4093 9.33636 15.7083ZM19.2563 16.25C18.9341 16.25 18.6727 16.4927 18.6727 16.7917V20.0417C18.6727 20.3407 18.9341 20.5833 19.2563 20.5833C19.5784 20.5833 19.8398 20.3407 19.8398 20.0417V16.7917C19.8398 16.4927 19.5784 16.25 19.2563 16.25ZM12.254 10.8333C11.9319 10.8333 11.6705 11.076 11.6705 11.375V20.0417C11.6705 20.3407 11.9319 20.5833 12.254 20.5833C12.5761 20.5833 12.8375 20.3407 12.8375 20.0417V11.375C12.8375 11.076 12.5761 10.8333 12.254 10.8333ZM15.7551 13C15.433 13 15.1716 13.2427 15.1716 13.5417V20.0417C15.1716 20.3407 15.433 20.5833 15.7551 20.5833C16.0772 20.5833 16.3386 20.3407 16.3386 20.0417V13.5417C16.3386 13.2427 16.0772 13 15.7551 13ZM28.0091 4.875V18.9583C28.0091 21.6461 25.6528 23.8333 22.7574 23.8333H5.2517C2.35626 23.8333 0 21.6461 0 18.9583V4.875C0 2.18725 2.35626 0 5.2517 0H22.7574C25.6528 0 28.0091 2.18725 28.0091 4.875ZM1.16705 4.875V7.58333H26.842V4.875C26.842 2.78417 25.0098 1.08333 22.7574 1.08333H5.2517C2.99931 1.08333 1.16705 2.78417 1.16705 4.875ZM26.842 18.9583V8.66667H1.16705V18.9583C1.16705 21.0492 2.99931 22.75 5.2517 22.75H22.7574C25.0098 22.75 26.842 21.0492 26.842 18.9583ZM4.66818 5.41667C5.31239 5.41667 5.83523 4.93133 5.83523 4.33333C5.83523 3.73533 5.31239 3.25 4.66818 3.25C4.02397 3.25 3.50114 3.73533 3.50114 4.33333C3.50114 4.93133 4.02397 5.41667 4.66818 5.41667ZM8.16932 5.41667C8.81353 5.41667 9.33636 4.93133 9.33636 4.33333C9.33636 3.73533 8.81353 3.25 8.16932 3.25C7.52511 3.25 7.00227 3.73533 7.00227 4.33333C7.00227 4.93133 7.52511 5.41667 8.16932 5.41667ZM11.6705 5.41667C12.3147 5.41667 12.8375 4.93133 12.8375 4.33333C12.8375 3.73533 12.3147 3.25 11.6705 3.25C11.0262 3.25 10.5034 3.73533 10.5034 4.33333C10.5034 4.93133 11.0262 5.41667 11.6705 5.41667Z" fill="black"/>
</svg>
