<svg width="18" height="22" viewBox="0 0 18 22" fill="none" xmlns="http://www.w3.org/2000/svg">
<path d="M17.3333 3.55556H14.1769C13.9529 1.56089 12.2756 0 10.2222 0H7.55556C5.50222 0 3.82489 1.56089 3.60089 3.55556H0.444444C0.199111 3.55556 0 3.75467 0 4C0 4.24533 0.199111 4.44444 0.444444 4.44444H1.77778V17.3333C1.77778 19.5387 3.57244 21.3333 5.77778 21.3333H12C14.2053 21.3333 16 19.5387 16 17.3333V4.44444H17.3333C17.5787 4.44444 17.7778 4.24533 17.7778 4C17.7778 3.75467 17.5787 3.55556 17.3333 3.55556ZM7.55556 0.888889H10.2222C11.7849 0.888889 13.0702 2.05156 13.288 3.55556H4.48978C4.70756 2.05156 5.99289 0.888889 7.55556 0.888889ZM15.1111 17.3333C15.1111 19.0489 13.7156 20.4444 12 20.4444H5.77778C4.06222 20.4444 2.66667 19.0489 2.66667 17.3333V4.44444H15.1111V17.3333ZM7.11111 9.33333V15.5556C7.11111 15.8009 6.912 16 6.66667 16C6.42133 16 6.22222 15.8009 6.22222 15.5556V9.33333C6.22222 9.088 6.42133 8.88889 6.66667 8.88889C6.912 8.88889 7.11111 9.088 7.11111 9.33333ZM11.5556 9.33333V15.5556C11.5556 15.8009 11.3564 16 11.1111 16C10.8658 16 10.6667 15.8009 10.6667 15.5556V9.33333C10.6667 9.088 10.8658 8.88889 11.1111 8.88889C11.3564 8.88889 11.5556 9.088 11.5556 9.33333Z" fill="white"/>
</svg>
