<svg width="30" height="20" viewBox="0 0 30 20" fill="none" xmlns="http://www.w3.org/2000/svg">
<path d="M30 4.54875V15.3813C30 16.175 29.5588 16.8888 28.85 17.2425C28.5525 17.3913 28.2337 17.4638 27.9163 17.4638C27.475 17.4638 27.0387 17.3225 26.67 17.0463L23.75 14.1375V14.375C23.75 17.4763 21.2262 20 18.125 20H5.625C2.52375 20 0 17.4763 0 14.375V5.625C0 2.52375 2.52375 0 5.625 0H18.125C21.2262 0 23.75 2.52375 23.75 5.625V5.82125L26.6012 2.945C27.305 2.41 28.1388 2.33375 28.85 2.68875C29.56 3.04375 30 3.755 30 4.54875ZM22.5 5.62375C22.5 3.21125 20.5375 1.24875 18.125 1.24875H5.625C3.2125 1.24875 1.25 3.21125 1.25 5.62375V14.3738C1.25 16.7863 3.2125 18.7488 5.625 18.7488H18.125C20.5375 18.7488 22.5 16.7863 22.5 14.3738V5.62375ZM28.75 4.54875C28.75 4.2275 28.5775 3.94875 28.29 3.805C28.0025 3.66125 27.6762 3.69125 27.4187 3.8825L23.7488 7.595V12.3713L27.485 16.1038C27.675 16.2388 28 16.27 28.2887 16.125C28.5763 15.9813 28.7488 15.7038 28.7488 15.3813L28.75 4.54875Z" fill="black"/>
</svg>
