<svg width="20" height="20" viewBox="0 0 20 20" fill="none" xmlns="http://www.w3.org/2000/svg">
<path d="M18.2008 8.33333H17.075C16.975 8.61833 16.8567 8.89583 16.7225 9.16667H17.4925L18.1692 13.3333H13.0583L12.6075 13.7742L13.2783 19.1667H6.7225L7.39333 13.7742L6.9425 13.3333H1.82083L2.50583 9.16667H3.285C3.15083 8.895 3.03333 8.61667 2.93417 8.33333H1.79917L0 19.27V20H20V19.4125L18.2008 8.33333ZM5.8825 19.1667H0.861667L1.68417 14.1667H6.50917L5.8825 19.1667ZM14.1175 19.1667L13.4908 14.1667H18.3042L19.1158 19.1667H14.1175ZM10 13.9925L14.1242 9.95833C15.2258 8.85667 15.8333 7.39167 15.8333 5.83333C15.8333 4.275 15.2258 2.81083 14.1242 1.70833C13.0233 0.606667 11.5583 0 10 0C8.44167 0 6.9775 0.606667 5.875 1.70833C3.60083 3.9825 3.60083 7.68333 5.87833 9.96083L10 13.9925ZM6.46417 2.2975C7.40833 1.35333 8.66417 0.833333 10 0.833333C11.3358 0.833333 12.5908 1.35333 13.535 2.2975C14.48 3.24167 15 4.4975 15 5.83333C15 7.16917 14.48 8.42417 13.5383 9.36583L10 12.8275L6.46417 9.36917C5.52 8.425 5 7.16917 5 5.83333C5 4.4975 5.52 3.2425 6.46417 2.2975ZM10 8.31667C11.3733 8.31667 12.4917 7.19917 12.4917 5.825C12.4917 4.45083 11.3733 3.33333 10 3.33333C8.62667 3.33333 7.50833 4.45083 7.50833 5.825C7.50833 7.19917 8.62583 8.31667 10 8.31667ZM10 4.16667C10.915 4.16667 11.6583 4.91083 11.6583 5.825C11.6583 6.73917 10.9142 7.48333 10 7.48333C9.08583 7.48333 8.34167 6.73917 8.34167 5.825C8.34167 4.91083 9.08583 4.16667 10 4.16667Z" fill="#626262"/>
</svg>
