<svg width="25" height="25" viewBox="0 0 25 25" fill="none" xmlns="http://www.w3.org/2000/svg">
<g clip-path="url(#clip0_516_3806)">
<g clip-path="url(#clip1_516_3806)">
<g clip-path="url(#clip2_516_3806)">
<path d="M12.4995 0.961914C8.61485 0.961914 5.01004 2.94845 2.88408 6.16672V1.44268C2.88408 1.1773 2.6687 0.961914 2.40331 0.961914C2.13793 0.961914 1.92254 1.1773 1.92254 1.44268V6.25038C1.92254 7.04557 2.56966 7.69268 3.36485 7.69268H8.17254C8.43793 7.69268 8.65331 7.4773 8.65331 7.21191C8.65331 6.94653 8.43793 6.73114 8.17254 6.73114H3.661C5.6062 3.75903 8.92446 1.92345 12.4995 1.92345C18.3312 1.92345 23.0764 6.66864 23.0764 12.5004C23.0764 18.3321 18.3312 23.0773 12.4995 23.0773C6.81677 23.0773 2.17543 18.634 1.93312 12.961C1.92062 12.6956 1.7312 12.4783 1.43216 12.5013C1.16773 12.5129 0.961003 12.7369 0.97158 13.0023C1.236 19.1917 6.30043 24.0398 12.4995 24.0398C18.862 24.0398 24.0379 18.8638 24.0379 12.5013C24.0379 6.13884 18.862 0.961914 12.4995 0.961914Z" fill="white"/>
<path d="M12.0193 6.73145C11.754 6.73145 11.5386 6.94683 11.5386 7.21221V12.5007C11.5386 12.6286 11.5895 12.7507 11.679 12.8411L14.5636 15.7257C14.6578 15.8199 14.7809 15.8661 14.904 15.8661C15.027 15.8661 15.1501 15.8189 15.2443 15.7257C15.4318 15.5382 15.4318 15.2334 15.2443 15.0459L12.5001 12.3016V7.21221C12.5001 6.94683 12.2847 6.73145 12.0193 6.73145Z" fill="white"/>
</g>
</g>
</g>
<defs>
<clipPath id="clip0_516_3806">
<rect width="25" height="25" fill="white"/>
</clipPath>
<clipPath id="clip1_516_3806">
<rect width="23.0769" height="23.0769" fill="white" transform="translate(0.961426 0.961914)"/>
</clipPath>
<clipPath id="clip2_516_3806">
<rect width="23.0769" height="23.0769" fill="white" transform="translate(0.961426 0.961914)"/>
</clipPath>
</defs>
</svg>
