<svg width="25" height="28" viewBox="0 0 25 28" fill="none" xmlns="http://www.w3.org/2000/svg">
<path d="M21.2675 3.41717C18.9135 1.21333 15.7842 0 12.4556 0C9.12695 0 5.99771 1.21333 3.64361 3.41717C-1.21537 7.966 -1.21537 15.3673 3.6486 19.9208L12.4556 27.9837L21.2675 19.9162C26.1265 15.3673 26.1265 7.96717 21.2675 3.41717ZM20.3915 19.0878L12.4556 26.3538L4.52469 19.0925C0.151727 14.9975 0.151727 8.337 4.52469 4.242C6.64325 2.25983 9.45968 1.16667 12.4556 1.16667C15.4515 1.16667 18.2679 2.25983 20.3865 4.242C24.7594 8.337 24.7594 14.9975 20.3915 19.0878ZM17.6161 8.86433L14.1105 6.35833C13.1373 5.66067 11.7764 5.66067 10.8006 6.35833L7.29626 8.86433C6.62455 9.34267 6.22452 10.101 6.22452 10.892V16.3333H18.6866V10.892C18.6866 10.0998 18.2854 9.34267 17.6161 8.86433ZM13.7018 15.1667H11.2094V11.6667H13.7018V15.1667ZM17.4404 15.1667H14.948V10.5H9.96315V15.1667H7.47073V10.892C7.47073 10.4627 7.68757 10.0508 8.05271 9.79183L11.5571 7.28583C12.0867 6.90783 12.8257 6.90783 13.3541 7.28583L16.8597 9.79183C17.2236 10.052 17.4404 10.4627 17.4404 10.892V15.1667Z" fill="white"/>
</svg>
