<svg width="50" height="44" viewBox="0 0 50 44" fill="none" xmlns="http://www.w3.org/2000/svg">
<path d="M48.0718 29.8542L31.2385 3.27083C29.8218 1.22917 27.4677 0 24.9885 0C22.5093 0 20.1552 1.20833 18.676 3.33333L1.926 29.8125C-0.198997 32.8542 -0.594831 36.5 0.884336 39.3125C2.34267 42.125 5.40517 43.7292 9.2385 43.7292H40.7385C44.5927 43.7292 47.6343 42.125 49.0927 39.3125C50.551 36.5 50.1552 32.875 48.0718 29.8542ZM22.9052 12.5C22.9052 11.3542 23.8427 10.4167 24.9885 10.4167C26.1343 10.4167 27.0718 11.3542 27.0718 12.5V25C27.0718 26.1458 26.1343 27.0833 24.9885 27.0833C23.8427 27.0833 22.9052 26.1458 22.9052 25V12.5ZM24.9885 37.5C23.2593 37.5 21.8635 36.1042 21.8635 34.375C21.8635 32.6458 23.2593 31.25 24.9885 31.25C26.7177 31.25 28.1135 32.6458 28.1135 34.375C28.1135 36.1042 26.7177 37.5 24.9885 37.5Z" fill="#FF0000"/>
</svg>
